#!OML:ASF I:\Actors\actors\Patient Classification 1\Patient 1\Session 1\Subject1.ASF
:FULLY-SPECIFIED
:DEGREES
722
root -0.622862 17.5432 7.60129 6.55373 -3.24796 -7.90735
lowerback 2.87837 3.11956 4.43904
upperback -7.97236 4.48762 -0.969832
thorax -9.65859 1.81054 -3.99852
lowerneck -15.7291 -5.38216 -0.694314
upperneck 35.1754 -10.2463 6.07122
head 15.3863 -3.60569 0.857574
rclavicle 5.50634e-014 -6.36111e-015
rhumerus -2.89387 53.3692 -76.3377
rradius 112.57
rwrist -5.91332
rhand -1.29731 -62.3516
rfingers 7.12502
rthumb 24.3472 90.825
lclavicle 5.50634e-014 -6.36111e-015
lhumerus -36.4607 -25.4461 102.608
lradius 113.585
lwrist 15.5598
lhand -45.3447 -34.9516
lfingers 7.12502
lthumb -18.1153 -5.77522
rfemur -0.493964 22.2662 26.6411
rtibia 1.60645
rfoot -11.684 -19.3647
rtoes -0.0693668
lfemur 8.35137 -39.566 -15.8811
ltibia -3.84646
lfoot -21.4673 50.8528
ltoes 12.3201
723
root -0.633604 17.5442 7.60682 6.41638 -2.37751 -8.00194
lowerback 2.94391 2.85244 4.09672
upperback -7.8387 4.09663 -1.0118
thorax -9.60331 1.6476 -3.81336
lowerneck -15.3192 -5.84939 -1.01663
upperneck 34.8226 -11.0141 6.60836
head 15.2322 -3.92857 1.00567
rclavicle 2.84262e-014 -1.59028e-014
rhumerus -8.07913 51.917 -78.9124
rradius 114.788
rwrist -13.2912
rhand -2.25012 -64.3675
rfingers 7.12502
rthumb 23.4335 92.9606
lclavicle 2.84262e-014 -1.59028e-014
lhumerus -36.5136 -25.3864 102.296
lradius 113.699
lwrist 14.9853
lhand -44.6725 -32.7189
lfingers 7.12502
lthumb -17.4685 -3.4838
rfemur -0.229065 22.2553 26.9539
rtibia 1.59319
rfoot -11.9596 -20.0994
rtoes 0.61014
lfemur 8.17594 -39.6873 -15.5449
ltibia -3.82155
lfoot -20.4052 50.3749
ltoes 11.0514
724
root -0.651355 17.5404 7.61633 6.15309 -1.4629 -8.62708
lowerback 3.01981 2.59167 4.17622
upperback -7.54383 3.76077 -0.8531
thorax -9.3575 1.49702 -3.64776
lowerneck -15.2697 -6.40563 -1.96659
upperneck 34.8031 -12.0087 7.75762
head 15.4583 -4.31966 1.46394
rclavicle 4.41302e-014 1.59028e-015
rhumerus -13.1701 50.3102 -80.7985
rradius 117.482
rwrist -21.5755
rhand -1.95987 -65.7415
rfingers 7.12502
rthumb 23.7119 94.2988
lclavicle 4.41302e-014 1.59028e-015
lhumerus -36.5033 -25.5057 102.128
lradius 113.748
lwrist 14.953
lhand -45.5924 -33.4712
lfingers 7.12502
lthumb -18.3536 -4.31706
rfemur 0.195655 22.3791 28.0029
rtibia 1.64554
rfoot -12.2636 -20.9767
rtoes 1.30028
lfemur 8.28139 -39.8207 -14.6692
ltibia -3.98117
lfoot -19.4988 49.8892
ltoes 9.9885
725
root -0.667451 17.5361 7.62622 5.8505 -0.452969 -9.3249
lowerback 3.64428 2.30673 4.37176
upperback -7.49194 3.43519 -0.711121
thorax -9.70207 1.31762 -3.60682
lowerneck -14.9921 -6.9705 -2.90913
upperneck 34.6786 -12.9749 8.81419
head 15.5987 -4.72504 1.89267
rclavicle 1.21259e-014 2.22639e-014
rhumerus -18.8981 48.6411 -82.6946
rradius 120.727
rwrist -30.6589
rhand -1.35646 -67.0105
rfingers 7.12502
rthumb 24.2905 95.4916
lclavicle 1.21259e-014 2.22639e-014
lhumerus -37.1516 -25.6384 102.203
lradius 113.819
lwrist 15.6114
lhand -46.68 -35.0765
lfingers 7.12502
lthumb -19.3996 -6.0242
rfemur 0.595053 22.3896 29.1385
rtibia 1.76298
rfoot -12.5725 -21.8638
rtoes 1.6402
lfemur 8.2669 -39.7312 -13.5997
ltibia -4.10394
lfoot -18.3321 49.1177
ltoes 8.53162
726
root -0.668759 17.5402 7.63264 5.85451 0.683625 -9.04998
lowerback 3.99528 1.94939 3.5311
upperback -7.49871 2.89723 -0.69527
thorax -10.0024 1.11024 -3.07841
lowerneck -14.6678 -7.52993 -3.91028
upperneck 34.4642 -13.8387 9.68493
head 15.6852 -5.12758 2.27029
rclavicle -1.37161e-014 -1.74931e-014
rhumerus -23.98 47.7208 -82.901
rradius 123.928
rwrist -39.2877
rhand -0.673181 -68.0584
rfingers 7.12502
rthumb 24.9454 96.4502
lclavicle -1.37161e-014 -1.74931e-014
lhumerus -37.7013 -25.1943 102.181
lradius 113.791
lwrist 16.1581
lhand -46.8975 -34.493
lfingers 7.12502
lthumb -19.6087 -5.46187
rfemur 0.585283 22.0308 28.8864
rtibia 1.821
rfoot -12.8987 -22.5472
rtoes 2.05109
lfemur 7.66201 -39.9399 -13.5331
ltibia -3.86895
lfoot -17.3665 48.403
ltoes 7.18046
727
root -0.668562 17.5462 7.6398 5.91882 1.85769 -8.58929
lowerback 3.48556 1.5907 2.68502
upperback -6.99829 2.30195 -0.831208
thorax -9.20723 0.902882 -2.64518
lowerneck -14.3858 -8.08304 -4.47752
upperneck 33.7712 -14.7189 10.4808
head 15.5228 -5.51031 2.52221
rclavicle 1.35174e-014 1.90833e-014
rhumerus -29.7208 46.0649 -83.9333
rradius 126.717
rwrist -40.7881
rhand 1.74028 -69.0683
rfingers 7.12502
rthumb 27.2562 97.1188
lclavicle 1.35174e-014 1.90833e-014
lhumerus -37.3746 -24.8559 101.511
lradius 113.651
lwrist 17.0797
lhand -46.951 -33.5601
lfingers 7.12502
lthumb -19.6601 -4.53427
rfemur 0.562731 21.603 28.3812
rtibia 1.81496
rfoot -13.2714 -23.2046
rtoes 2.70334
lfemur 7.06414 -40.3284 -13.7178
ltibia -3.68351
lfoot -16.4122 47.798
ltoes 5.87469
728
root -0.671249 17.5463 7.64737 5.7639 3.05326 -8.78023
lowerback 3.80008 1.19914 2.38715
upperback -6.76901 1.76615 -0.697414
thorax -9.18633 0.669771 -2.28223
lowerneck -13.9003 -8.59006 -4.86803
upperneck 33.2902 -15.4609 10.8755
head 15.3487 -5.86837 2.61342
rclavicle 1.33186e-014 -2.54444e-014
rhumerus -35.3986 46.428 -84.2589
rradius 129.272
rwrist -40.9298
rhand 3.09956 -69.1257
rfingers 7.12502
rthumb 28.5557 96.965
lclavicle 1.33186e-014 -2.54444e-014
lhumerus -37.8013 -24.4162 101.216
lradius 113.629
lwrist 18.2718
lhand -47.1673 -33.1698
lfingers 7.12502
lthumb -19.8682 -4.16534
rfemur 0.807806 21.2117 28.7608
rtibia 1.80373
rfoot -13.6462 -23.9053
rtoes 3.22017
lfemur 6.73851 -40.3174 -13.1618
ltibia -3.75105
lfoot -14.9406 46.8825
ltoes 3.92858
729
root -0.674386 17.5459 7.65265 5.65549 4.27052 -9.10917
lowerback 4.34871 0.759992 2.55545
upperback -6.69572 1.20322 -0.693008
thorax -9.46198 0.378024 -2.31886
lowerneck -13.3378 -9.00577 -5.30182
upperneck 32.9329 -16.1456 11.4516
head 15.2491 -6.18606 2.80536
rclavicle -2.15681e-014 1.90833e-014
rhumerus -42.1304 45.6737 -85.7457
rradius 131.589
rwrist -40.153
rhand 4.10224 -69.6419
rfingers 7.12502
rthumb 29.5133 97.3162
lclavicle -2.15681e-014 1.90833e-014
lhumerus -38.5956 -24.0131 100.724
lradius 113.709
lwrist 19.1306
lhand -47.3426 -32.4107
lfingers 7.12502
lthumb -20.0366 -3.42378
rfemur 0.945268 20.91 29.2822
rtibia 1.816
rfoot -13.9703 -24.6941
rtoes 3.74837
lfemur 6.1937 -40.1443 -12.2801
ltibia -3.77523
lfoot -13.5607 45.7895
ltoes 1.85972
730
root -0.678836 17.5484 7.65941 5.63048 5.37976 -9.2878
lowerback 4.29841 0.342534 2.19147
upperback -6.33571 0.623609 -0.43638
thorax -9.07268 0.140595 -1.76642
lowerneck -12.8965 -9.43663 -6.04333
upperneck 32.4473 -16.7637 12.082
head 15.1574 -6.50653 3.07293
rclavicle 3.26007e-014 -1.11319e-014
rhumerus -48.0404 44.285 -86.2014
rradius 133.669
rwrist -39.5318
rhand 4.58879 -70.5827
rfingers 7.12502
rthumb 29.9777 98.174
lclavicle 3.26007e-014 -1.11319e-014
lhumerus -38.9438 -23.3375 100.345
lradius 113.784
lwrist 19.5609
lhand -47.604 -31.8289
lfingers 7.12502
lthumb -20.2879 -2.86854
rfemur 0.941086 20.762 29.5998
rtibia 1.90782
rfoot -14.308 -25.4986
rtoes 4.34544
lfemur 5.59941 -40.0602 -11.5569
ltibia -3.78012
lfoot -12.7091 44.8131
ltoes 0.484662
731
root -0.679495 17.5498 7.66846 5.47401 6.36968 -9.57728
lowerback 4.93395 -0.104852 2.32097
upperback -6.27994 0.0533093 -0.364857
thorax -9.41732 -0.14835 -1.69662
lowerneck -12.3415 -9.85852 -6.57626
upperneck 32.3987 -17.4563 12.5341
head 15.2251 -6.84625 3.23395
rclavicle 5.96354e-016 -6.36111e-015
rhumerus -54.5649 43.2983 -87.653
rradius 135.321
rwrist -37.0769
rhand 4.71427 -70.0438
rfingers 7.12502
rthumb 30.0974 97.6134
lclavicle 5.96354e-016 -6.36111e-015
lhumerus -39.9519 -22.6078 99.8149
lradius 114.01
lwrist 19.8646
lhand -47.9302 -31.1739
lfingers 7.12502
lthumb -20.6014 -2.24712
rfemur 1.06839 20.5232 30.0749
rtibia 2.03922
rfoot -14.7131 -26.1061
rtoes 4.95179
lfemur 5.34788 -39.979 -10.9326
ltibia -3.89384
lfoot -12.0839 43.892
ltoes -0.382514
